<?xml version="1.0" standalone="no"?>
<!DOCTYPE svg PUBLIC "-//W3C//DTD SVG 20010904//EN"
 "http://www.w3.org/TR/2001/REC-SVG-20010904/DTD/svg10.dtd">
<svg version="1.0" xmlns="http://www.w3.org/2000/svg"
 width="230.000000pt" height="230.000000pt" viewBox="0 0 230.000000 230.000000"
 preserveAspectRatio="xMidYMid meet">
<metadata>
Created by potrace 1.11, written by Peter Selinger 2001-2013
</metadata>
<g transform="translate(0.000000,230.000000) scale(0.100000,-0.100000)"
fill="#000000" stroke="none">
<path d="M323 2083 c-13 -2 -23 -9 -23 -14 0 -6 -5 -7 -10 -4 -6 3 -13 -1 -16
-9 -3 -9 -12 -16 -19 -16 -20 0 -43 -70 -39 -120 2 -24 11 -67 20 -95 17 -52
70 -206 84 -240 4 -11 22 -58 40 -105 17 -47 36 -93 41 -102 5 -10 9 -25 9
-33 0 -8 5 -15 11 -15 5 0 8 -4 5 -8 -3 -5 2 -22 10 -38 9 -16 17 -37 19 -46
2 -10 11 -34 20 -55 38 -86 47 -113 37 -113 -5 0 -14 -17 -21 -37 -21 -58 -68
-152 -87 -170 -10 -10 -35 -17 -67 -18 -69 -3 -103 -18 -122 -55 -8 -16 -13
-30 -11 -30 3 0 1 -11 -4 -25 -7 -17 -6 -25 1 -25 6 0 9 -9 6 -20 -3 -11 -1
-20 4 -20 5 0 9 -6 9 -12 0 -15 56 -54 71 -50 6 1 17 -5 26 -13 11 -11 19 -13
27 -5 7 5 16 7 19 3 10 -9 97 -10 97 -1 0 5 3 7 8 6 21 -6 76 26 125 74 52 51
127 154 127 175 0 6 7 16 15 23 8 7 12 16 9 21 -3 5 0 9 5 9 6 0 11 6 11 13 0
7 6 21 13 31 11 15 16 11 47 -38 19 -31 38 -56 43 -56 4 0 7 -4 7 -10 0 -5 18
-33 40 -62 22 -29 38 -58 36 -65 -3 -7 -46 -71 -96 -143 -107 -153 -141 -221
-135 -270 12 -99 142 -154 211 -89 13 13 63 76 110 141 46 65 88 118 92 118 4
0 42 -50 85 -109 95 -133 130 -169 175 -177 76 -14 165 65 156 139 -5 45 -47
118 -150 258 -55 74 -94 135 -91 144 3 7 49 73 103 145 l97 131 26 -58 c14
-32 29 -59 33 -61 5 -2 8 -9 8 -16 0 -7 11 -30 25 -50 13 -20 22 -36 20 -36
-7 0 40 -55 90 -105 47 -48 92 -78 104 -70 5 3 11 0 13 -6 2 -7 27 -12 63 -11
70 0 87 3 97 17 5 6 8 6 8 -2 0 -8 8 -8 28 2 43 22 72 54 72 80 0 14 4 25 9
25 15 0 -13 85 -37 108 -26 25 -20 24 -92 26 -61 2 -80 10 -80 32 0 8 -4 14
-9 14 -9 0 -45 72 -82 163 -10 26 -14 47 -9 47 6 0 10 6 10 14 0 8 5 27 12 43
6 15 11 31 10 36 -1 4 2 7 8 7 6 0 9 3 8 8 -2 9 17 59 37 95 10 19 11 25 2 21
-9 -6 -9 -4 -1 7 6 8 19 34 28 59 10 25 23 56 29 70 6 14 11 28 12 33 2 4 4 9
5 12 1 3 3 8 4 13 2 9 25 69 42 109 8 17 14 36 14 41 0 6 9 32 20 58 11 26 22
54 24 63 2 9 6 23 9 31 10 28 20 75 22 112 3 38 -31 122 -45 113 -4 -3 -10 1
-13 8 -5 14 -71 37 -107 37 -29 0 -100 -40 -100 -57 0 -7 -4 -13 -8 -13 -5 0
-15 -12 -22 -27 -15 -34 -60 -160 -65 -187 -3 -11 -15 -49 -27 -85 -12 -36
-21 -72 -20 -78 2 -7 -1 -13 -6 -13 -5 0 -9 -6 -10 -12 -1 -19 -7 -39 -20 -71
-7 -16 -12 -35 -12 -43 0 -44 -34 26 -44 89 -1 9 -5 20 -9 23 -4 4 -7 18 -7
31 0 13 -4 23 -8 23 -4 0 -9 8 -10 18 -6 49 -8 57 -14 62 -4 3 -9 15 -11 25
-2 11 -7 27 -10 35 -4 8 -8 25 -10 37 -2 12 -6 26 -10 29 -4 4 -7 18 -7 31 0
13 -5 23 -11 23 -6 0 -9 6 -6 13 2 6 -7 30 -21 52 -49 80 -108 108 -179 84
-39 -12 -85 -53 -92 -79 -2 -8 -7 -26 -11 -40 -4 -14 -5 -34 -3 -45 2 -11 5
-30 6 -42 2 -12 6 -25 10 -29 4 -4 7 -16 7 -26 0 -10 5 -18 12 -18 6 0 9 -3 6
-6 -6 -6 24 -99 35 -111 4 -3 7 -15 7 -25 0 -10 5 -18 11 -18 5 0 8 -4 5 -8
-3 -5 1 -20 9 -35 8 -15 11 -27 8 -27 -3 0 0 -7 7 -15 7 -8 10 -15 6 -15 -4 0
0 -10 9 -23 8 -13 12 -27 8 -31 -4 -4 -2 -11 5 -15 8 -4 15 -14 16 -22 8 -40
21 -76 34 -96 8 -13 11 -23 7 -23 -4 0 -3 -6 3 -12 6 -7 11 -16 11 -20 1 -5 1
-9 2 -10 8 -27 5 -38 -12 -38 -26 0 -82 -52 -125 -118 -21 -31 -40 -59 -44
-62 -3 -3 -23 -29 -44 -57 -21 -29 -39 -53 -41 -53 -2 0 -13 16 -25 35 -12 20
-27 41 -34 48 -6 6 -29 37 -50 67 -22 30 -60 76 -85 103 -25 26 -40 47 -33 47
7 0 11 3 10 8 -2 8 9 45 27 87 23 54 28 70 26 83 -1 6 3 12 10 12 6 0 9 6 6
14 -3 8 -2 16 3 18 5 2 11 12 13 23 2 11 9 31 17 45 7 14 13 27 13 30 -1 7 7
30 22 65 7 17 21 55 31 85 10 30 22 59 26 65 4 5 8 17 8 27 0 10 4 18 9 18 4
0 7 11 6 25 -2 14 0 25 4 25 15 0 2 85 -19 125 -11 21 -20 35 -20 30 0 -5 -10
1 -22 12 -27 25 -77 37 -116 28 -49 -10 -131 -103 -124 -137 1 -5 -2 -8 -7 -8
-5 0 -8 -8 -6 -17 1 -10 -2 -23 -7 -29 -5 -7 -8 -16 -7 -20 1 -5 -3 -22 -9
-37 -7 -16 -12 -35 -12 -43 0 -8 -5 -14 -11 -14 -5 0 -7 -4 -4 -10 3 -5 3 -16
-2 -22 -4 -7 -9 -24 -11 -38 -2 -13 -7 -29 -11 -35 -9 -11 -36 -116 -33 -127
1 -5 -3 -8 -9 -8 -5 0 -8 -4 -5 -9 3 -4 -1 -16 -8 -26 -12 -17 -14 -16 -21 11
-5 16 -7 33 -6 38 1 4 -3 14 -9 20 -5 7 -7 16 -3 19 3 4 0 7 -7 7 -7 0 -11 3
-7 6 3 4 0 23 -8 43 -18 46 -39 124 -37 134 1 4 -3 7 -10 7 -6 0 -9 3 -5 6 3
3 -3 31 -14 61 -10 31 -17 58 -15 61 3 2 -2 11 -10 19 -8 8 -12 19 -9 24 4 5
1 9 -4 9 -6 0 -11 6 -11 14 0 21 -47 74 -81 91 -27 15 -60 17 -106 8z"/>
</g>
</svg>
